<svg width="24" height="24" viewBox="0 0 24 24" fill="none" xmlns="http://www.w3.org/2000/svg">
<path d="M2.68993 6.70499C2.61169 6.52199 2.46396 6.37757 2.27924 6.30349C2.09451 6.22941 1.88793 6.23175 1.70493 6.30999C1.52193 6.38823 1.37751 6.53596 1.30343 6.72068C1.22935 6.90541 1.23169 7.11199 1.30993 7.29499L2.68993 6.70499ZM9.04093 13.738C9.0969 13.6555 9.13586 13.5626 9.15553 13.4649C9.1752 13.3672 9.17518 13.2665 9.15548 13.1687C9.13578 13.071 9.09679 12.9782 9.04079 12.8957C8.9848 12.8132 8.91291 12.7427 8.82935 12.6883C8.74578 12.6339 8.65221 12.5968 8.55411 12.579C8.45601 12.5612 8.35535 12.5631 8.25801 12.5847C8.16067 12.6063 8.0686 12.647 7.9872 12.7046C7.9058 12.7622 7.8367 12.8354 7.78393 12.92L9.04093 13.738ZM6.37093 15.091C6.31722 15.1736 6.2803 15.266 6.26229 15.3628C6.24428 15.4597 6.24552 15.5592 6.26595 15.6556C6.30721 15.8502 6.42411 16.0205 6.59093 16.129C6.75775 16.2375 6.96083 16.2752 7.15549 16.234C7.25188 16.2135 7.3433 16.1743 7.42453 16.1186C7.50576 16.0628 7.57522 15.9916 7.62893 15.909L6.37093 15.091ZM22.6899 7.29499C22.7598 7.11383 22.7566 6.91264 22.6812 6.73374C22.6057 6.55485 22.4638 6.41219 22.2853 6.33577C22.1068 6.25935 21.9057 6.25513 21.7241 6.32398C21.5426 6.39284 21.3948 6.52942 21.3119 6.70499L22.6899 7.29499ZM19.9699 13.16C20.0386 13.2337 20.1214 13.2928 20.2134 13.3338C20.3054 13.3748 20.4047 13.3968 20.5054 13.3986C20.6061 13.4004 20.7061 13.3818 20.7995 13.3441C20.8929 13.3064 20.9777 13.2502 21.049 13.179C21.1202 13.1078 21.1763 13.023 21.2141 12.9296C21.2518 12.8362 21.2703 12.7362 21.2685 12.6355C21.2667 12.5348 21.2447 12.4355 21.2037 12.3435C21.1627 12.2515 21.1036 12.1687 21.0299 12.1L19.9699 13.16ZM11.2499 16.5C11.2499 16.6989 11.3289 16.8897 11.4696 17.0303C11.6103 17.171 11.801 17.25 11.9999 17.25C12.1988 17.25 12.3896 17.171 12.5303 17.0303C12.6709 16.8897 12.7499 16.6989 12.7499 16.5H11.2499ZM16.3709 15.909C16.4794 16.0758 16.6497 16.1927 16.8444 16.234C17.039 16.2752 17.2421 16.2375 17.4089 16.129C17.5757 16.0205 17.6926 15.8502 17.7339 15.6556C17.7752 15.4609 17.7374 15.2578 17.6289 15.091L16.3709 15.909ZM5.53093 11.659C5.66328 11.5167 5.73523 11.3286 5.73162 11.1343C5.728 10.94 5.64912 10.7547 5.51157 10.6174C5.37403 10.4801 5.18857 10.4016 4.99426 10.3983C4.79996 10.3951 4.61198 10.4674 4.46993 10.6L5.53093 11.659ZM2.96993 12.099C2.83745 12.2412 2.76533 12.4292 2.76875 12.6235C2.77218 12.8178 2.85089 13.0032 2.98831 13.1406C3.12572 13.278 3.3111 13.3567 3.50541 13.3602C3.69971 13.3636 3.88775 13.2915 4.02993 13.159L2.96993 12.099ZM11.9999 13.25C8.77593 13.25 6.46093 11.645 4.92493 9.98999C4.27944 9.29159 3.70898 8.52741 3.22293 7.70999C3.0399 7.40238 2.87073 7.08673 2.71593 6.76399L2.69393 6.71499L2.68993 6.70499L2.68893 6.70399L1.99993 6.99999L1.30993 7.29499L1.31093 7.29599L1.31193 7.29899L1.31493 7.30499L1.35493 7.39299C1.38093 7.45166 1.41993 7.53266 1.47193 7.63599C1.57493 7.84199 1.72793 8.13199 1.93393 8.47699C2.34393 9.16699 2.96893 10.087 3.82493 11.01C5.53993 12.855 8.22393 14.75 11.9999 14.75V13.25ZM15.3129 12.631C14.3429 13.014 13.2419 13.25 11.9999 13.25V14.75C13.4379 14.75 14.7249 14.474 15.8619 14.027L15.3129 12.631ZM7.78393 12.92L6.37093 15.091L7.62893 15.908L9.04093 13.738L7.78393 12.92ZM21.9999 6.99999L21.3099 6.70399H21.3109V6.70599L21.3039 6.71899L21.2759 6.78099C21.0842 7.17983 20.8705 7.56775 20.6359 7.94299C20.0353 8.91111 19.3127 9.79804 18.4859 10.582L19.5129 11.676C20.8006 10.4547 21.8581 9.01169 22.6349 7.41599L22.6739 7.33099L22.6839 7.30699L22.6879 7.29999V7.29699L22.6889 7.29599L21.9999 6.99999ZM18.4859 10.582C17.6259 11.388 16.5739 12.134 15.3129 12.631L15.8619 14.027C17.3349 13.447 18.5469 12.583 19.5129 11.676L18.4859 10.582ZM18.4699 11.659L19.9699 13.16L21.0299 12.099L19.5299 10.599L18.4699 11.659ZM11.2499 14V16.5H12.7499V14H11.2499ZM14.9589 13.738L16.3709 15.909L17.6289 15.091L16.2159 12.92L14.9589 13.738ZM4.46893 10.598L2.96893 12.098L4.02993 13.159L5.52993 11.66L4.46893 10.598Z" fill="#8F8F8F"/>
</svg>
